<?xml version="1.0" encoding="iso-8859-1"?>
<!-- Generator: Adobe Illustrator 19.0.0, SVG Export Plug-In . SVG Version: 6.00 Build 0)  -->
<svg version="1.1" id="Capa_1" xmlns="http://www.w3.org/2000/svg" xmlns:xlink="http://www.w3.org/1999/xlink" x="0px" y="0px"
	 viewBox="0 0 512 512" style="enable-background:new 0 0 512 512;" xml:space="preserve">
<path style="fill:#FAE196;" d="M158.721,224.169c-34.164,11.485-58.784,43.747-58.784,81.781v116.267h117.567V305.951
	C217.505,267.917,192.885,235.654,158.721,224.169z"/>
<path style="fill:#FFFFFF;" d="M117.851,336.72v-41.451c-9.341-2.802-18.308-6.806-26.652-11.958H79.351v53.329
	c0,28.719,23.281,52,52,52l0,0c5.045,0,9.916-0.732,14.528-2.072C129.073,376.331,117.851,357.837,117.851,336.72z"/>
<path style="fill:#FFCDAC;" d="M183.351,336.639V300h-1.896h-23.479h-8.001c-10.958,0-21.771-1.626-32.124-4.731v41.451
	c0,21.116,11.223,39.611,28.028,49.847C167.524,380.279,183.351,360.313,183.351,336.639z"/>
<g>
	<path style="fill:#FF5A5A;" d="M183.351,353h7c13.807,0,25-11.193,25-25l0,0c0-13.807-11.193-25-25-25h-7V353z"/>
	<path style="fill:#FF5A5A;" d="M79.091,303h-7c-13.807,0-25,11.193-25,25l0,0c0,13.807,11.193,25,25,25h7V303z"/>
</g>
<path style="fill:#FFCDAC;" d="M440.998,328.42v-48.535c0-25.396-15.728-47.104-37.969-55.956
	c-22.24,8.852-37.969,30.56-37.969,55.956v48.535c0,25.396,15.728,47.104,37.969,55.956
	C425.27,375.524,440.998,353.816,440.998,328.42z"/>
<path style="fill:#78D2FA;" d="M441.637,341.382h7c13.807,0,25-11.193,25-25l0,0c0-13.807-11.193-25-25-25h-7"/>
<path style="fill:#FFCDAC;" d="M380.591,219.899L380.591,219.899c7.786,0,15.218,1.498,22.044,4.196
	c0.132-0.054,0.261-0.113,0.394-0.165c-6.885-2.74-14.388-4.263-22.25-4.263l0,0c-33.258,0-60.219,26.961-60.219,60.219v0.044
	C320.56,246.776,347.437,219.899,380.591,219.899z"/>
<path style="fill:#878791;" d="M402.635,224.095c-22.031,8.951-37.575,30.546-37.575,55.79v12.601
	c16.64-3.172,32.089-11.253,44.239-23.403l-11.503,12.461c7.672,7.672,18.078,11.982,28.928,11.982h13.898V279.93
	C440.622,254.562,424.878,232.885,402.635,224.095z"/>
<path style="fill:#78D2FA;" d="M320.56,291.382h-7c-13.807,0-25,11.193-25,25l0,0c0,13.807,11.193,25,25,25h7"/>
<g>
	<path style="fill:#FFCDAC;" d="M434.033,420.179l1.705-1.162l-11.088-2.522c-10.113-3.386-16.847-7.573-16.847-16.916v-11.74
		l-28.609-0.311l0.944,16.071c0.812,13.817-8.421,20.842-22.721,26.798C383.113,435.305,410.014,431.906,434.033,420.179
		L434.033,420.179z"/>
	<path style="fill:#FFCDAC;" d="M258.475,446.474c-1.612,3.494-2.475,7.437-2.475,11.856l0,0
		C256,453.911,256.863,449.969,258.475,446.474z"/>
	<path style="fill:#FFCDAC;" d="M258.475,446.474c0.403-0.874,0.853-1.719,1.348-2.537
		C259.328,444.755,258.878,445.601,258.475,446.474z"/>
	<path style="fill:#FFCDAC;" d="M498.175,443.937c0.495,0.818,0.945,1.664,1.348,2.537
		C499.12,445.601,498.67,444.755,498.175,443.937z"/>
	<path style="fill:#FFCDAC;" d="M499.524,446.474c1.613,3.495,2.476,7.437,2.476,11.856l0,0
		C502,453.911,501.137,449.969,499.524,446.474z"/>
</g>
<g>
	<path style="fill:#91E696;" d="M281.112,428.761c1.132-0.383,2.294-0.743,3.484-1.079
		C283.406,428.018,282.244,428.377,281.112,428.761z"/>
	<path style="fill:#91E696;" d="M473.394,427.682c1.19,0.336,2.353,0.696,3.485,1.079
		C475.746,428.377,474.584,428.018,473.394,427.682z"/>
	<path style="fill:#91E696;" d="M273.21,432.085c1.943-1.009,4.023-1.918,6.226-2.732
		C277.233,430.167,275.153,431.076,273.21,432.085z"/>
	<path style="fill:#91E696;" d="M486.214,432.86c0.937,0.529,1.838,1.083,2.703,1.663
		C488.052,433.943,487.151,433.389,486.214,432.86z"/>
	<path style="fill:#91E696;" d="M269.077,434.523c0.864-0.58,1.765-1.134,2.702-1.663
		C270.842,433.389,269.941,433.943,269.077,434.523z"/>
	<path style="fill:#91E696;" d="M262.347,440.439c0.626-0.736,1.294-1.446,2.003-2.13
		C263.641,438.993,262.973,439.703,262.347,440.439z"/>
	<path style="fill:#91E696;" d="M491.397,436.339c0.789,0.631,1.539,1.288,2.248,1.971
		C492.936,437.626,492.186,436.969,491.397,436.339z"/>
	<path style="fill:#91E696;" d="M264.35,438.31c0.709-0.683,1.458-1.34,2.247-1.971C265.809,436.969,265.059,437.626,264.35,438.31z
		"/>
	<path style="fill:#91E696;" d="M478.555,429.353c2.204,0.814,4.285,1.723,6.228,2.732
		C482.839,431.076,480.758,430.167,478.555,429.353z"/>
	<path style="fill:#91E696;" d="M493.645,438.31c0.709,0.683,1.378,1.393,2.004,2.13
		C495.023,439.703,494.354,438.993,493.645,438.31z"/>
	<path style="fill:#91E696;" d="M473.394,427.682c-1.786-0.504-3.634-0.957-5.54-1.358l-32.115-7.306l0,0l32.115,7.306
		C469.76,426.725,471.608,427.177,473.394,427.682z"/>
	<path style="fill:#91E696;" d="M325.396,418.301L325.396,418.301l-35.26,8.022c-1.906,0.402-3.755,0.854-5.54,1.358
		c1.785-0.504,3.634-0.957,5.54-1.358L325.396,418.301z"/>
	<path style="fill:#91E696;" d="M499.524,446.474c-0.403-0.874-0.853-1.719-1.348-2.537c-0.743-1.227-1.587-2.393-2.526-3.498
		c-0.626-0.736-1.295-1.446-2.004-2.13s-1.459-1.34-2.248-1.971c-0.789-0.631-1.616-1.236-2.481-1.816
		c-0.865-0.58-1.766-1.134-2.703-1.663c-0.468-0.265-0.946-0.523-1.431-0.775c-0.398-0.207-0.826-0.391-1.236-0.59
		c-20.016,2.669-40.537,0.365-59.675-6.919c-19.814,7.542-41.11,9.745-61.793,6.617c-0.628,0.294-1.267,0.579-1.869,0.892
		c-0.486,0.252-0.963,0.51-1.431,0.775c-0.937,0.529-1.838,1.083-2.702,1.663c-0.864,0.58-1.691,1.185-2.48,1.816
		c-0.788,0.631-1.538,1.288-2.247,1.971s-1.377,1.393-2.003,2.13c-0.939,1.105-1.783,2.27-2.525,3.498
		c-0.495,0.818-0.945,1.664-1.348,2.537c-1.612,3.495-2.475,7.437-2.475,11.856V502h159v-43.669
		C502,453.911,501.137,449.969,499.524,446.474z"/>
</g>
<g>
	<path style="fill:#FFCDAC;" d="M252.175,443.937c0.495,0.818,0.945,1.664,1.348,2.537
		C253.12,445.601,252.67,444.755,252.175,443.937z"/>
	<path style="fill:#FFCDAC;" d="M12.475,446.474c0.403-0.874,0.853-1.719,1.348-2.537C13.328,444.755,12.878,445.601,12.475,446.474
		z"/>
	<path style="fill:#FFCDAC;" d="M256,458.331c0-4.419-0.863-8.362-2.476-11.856C255.137,449.969,256,453.911,256,458.331
		L256,458.331z"/>
	<path style="fill:#FFCDAC;" d="M10,458.331L10,458.331c0-4.419,0.863-8.362,2.475-11.856C10.863,449.969,10,453.911,10,458.331z"/>
</g>
<path style="fill:#FFFFFF;" d="M134.557,404.264v-16.722l-30.37-0.33v12.366c0,9.343-6.734,13.53-16.847,16.916l-7.943,1.807
	l1.314,1.877l0,0c9.241,4.512,18.909,7.783,28.771,9.832C124.568,424.848,134.557,418.378,134.557,404.264z"/>
<path style="fill:#FFCDAC;" d="M188.033,420.179L188.033,420.179l1.705-1.162l-11.088-2.522
	c-10.113-3.386-16.847-7.573-16.847-16.916v-11.74l-27.247-0.296v16.722c0,14.114-9.989,20.584-25.076,25.747
	C135.758,435.472,163.41,432.201,188.033,420.179z"/>
<g>
	<path style="fill:#78D2FA;" d="M23.077,434.523c0.864-0.58,1.765-1.134,2.702-1.663C24.842,433.389,23.941,433.943,23.077,434.523z
		"/>
	<path style="fill:#78D2FA;" d="M35.112,428.761c1.132-0.383,2.294-0.743,3.484-1.079C37.406,428.018,36.244,428.377,35.112,428.761
		z"/>
	<path style="fill:#78D2FA;" d="M27.21,432.085c1.943-1.009,4.023-1.918,6.226-2.732C31.233,430.167,29.153,431.076,27.21,432.085z"
		/>
	<path style="fill:#78D2FA;" d="M18.35,438.31c0.709-0.683,1.458-1.34,2.247-1.971C19.809,436.969,19.059,437.626,18.35,438.31z"/>
	<path style="fill:#78D2FA;" d="M16.347,440.439c0.626-0.736,1.294-1.446,2.003-2.13C17.641,438.993,16.973,439.703,16.347,440.439z
		"/>
	<path style="fill:#78D2FA;" d="M227.394,427.682c-1.786-0.504-3.634-0.957-5.54-1.358l-32.115-7.306l0,0l32.115,7.306
		C223.76,426.725,225.608,427.177,227.394,427.682z"/>
	<path style="fill:#78D2FA;" d="M247.645,438.31c0.709,0.683,1.378,1.393,2.004,2.13
		C249.023,439.703,248.354,438.993,247.645,438.31z"/>
	<path style="fill:#78D2FA;" d="M245.397,436.339c0.789,0.631,1.539,1.288,2.248,1.971
		C246.936,437.626,246.186,436.969,245.397,436.339z"/>
	<path style="fill:#78D2FA;" d="M79.396,418.301L79.396,418.301l-35.26,8.022c-1.906,0.402-3.755,0.854-5.54,1.358
		c1.785-0.504,3.634-0.957,5.54-1.358L79.396,418.301z"/>
	<path style="fill:#78D2FA;" d="M240.214,432.86c0.937,0.529,1.838,1.083,2.703,1.663
		C242.052,433.943,241.151,433.389,240.214,432.86z"/>
	<path style="fill:#78D2FA;" d="M232.555,429.353c2.204,0.814,4.285,1.723,6.228,2.732
		C236.839,431.076,234.758,430.167,232.555,429.353z"/>
	<path style="fill:#78D2FA;" d="M227.394,427.682c1.19,0.336,2.353,0.696,3.485,1.079
		C229.746,428.377,228.584,428.018,227.394,427.682z"/>
	<path style="fill:#78D2FA;" d="M253.524,446.474c-0.403-0.874-0.853-1.719-1.348-2.537c-0.743-1.227-1.587-2.393-2.526-3.498
		c-0.626-0.736-1.295-1.446-2.004-2.13s-1.459-1.34-2.248-1.971s-1.616-1.236-2.481-1.816c-0.865-0.58-1.766-1.134-2.703-1.663
		c-0.273-0.154-0.555-0.302-0.834-0.452c-18.907,0.981-37.985-2.433-55.674-10.232c-18.456,8.138-38.425,11.495-58.133,10.074
		c-0.379,0.2-0.758,0.401-1.126,0.61c-0.937,0.529-1.838,1.083-2.702,1.663c-0.864,0.58-1.691,1.185-2.48,1.816
		c-0.788,0.631-1.538,1.288-2.247,1.971s-1.377,1.393-2.003,2.13c-0.939,1.105-1.783,2.27-2.525,3.498
		c-0.495,0.818-0.945,1.664-1.348,2.537c-1.612,3.495-2.475,7.437-2.475,11.856V502H256v-43.669
		C256,453.911,255.137,449.969,253.524,446.474z"/>
</g>
<path style="fill:#C8F5FF;" d="M88.351,40.333C66.618,40.333,49,57.951,49,79.685v63.313c0,3.104,0.371,6.121,1.05,9.018h17.313
	l30.527,30.333h4.752v-30.333h70.006c21.733,0,39.351-17.618,39.351-39.351V49.351c0-3.104-0.371-6.121-1.05-9.018H88.351z"/>
<path style="fill:#D7D7E6;" d="M349.333,80.351v63.313c0,2.867,0.314,5.659,0.897,8.351h62.965v31h4.081l31.198-31h14.175
	c21.733,0,39.351-17.618,39.351-39.351V49.351c0-2.866-0.315-5.659-0.897-8.351H388.685C366.951,41,349.333,58.618,349.333,80.351z"
	/>
<path d="M469.997,416.556l-42.628-9.699c-9.565-3.268-9.565-5.396-9.565-7.278v-11.53c13.542-8.439,24.005-21.355,29.32-36.667
	h1.514c19.299,0,35-15.701,35-35c0-18.504-14.438-33.692-32.639-34.911v-1.585c0-38.719-31.5-70.219-70.219-70.219
	s-70.219,31.5-70.219,70.219v1.633c-17.899,1.528-32,16.575-32,34.863c0,19.299,15.701,35,35,35h0.875
	c4.853,13.983,14.004,25.964,25.87,34.366c-0.07,0.479-0.119,0.965-0.119,1.464v12.366c0,1.882,0,4.011-9.565,7.278l-42.629,9.699
	c-15.772,3.336-25.743,9.288-31.993,15.963c-5.774-6.166-14.728-11.715-28.496-15.155V305.951c0-53.091-43.193-96.284-96.284-96.284
	s-96.284,43.193-96.284,96.284v112.388C4.75,427.228,0,446.885,0,458.33V502c0,5.522,4.477,10,10,10h492c5.523,0,10-4.478,10-10
	v-43.67C512,446.043,506.542,424.286,469.997,416.556z M463.637,316.382c0,7.49-5.524,13.698-12.709,14.806
	c0.036-0.919,0.07-1.839,0.07-2.767v-26.834C458.148,302.725,463.637,308.916,463.637,316.382z M380.779,229.667
	c27.691,0,50.219,22.528,50.219,50.219v3.64h-5.721c-5.142,0-10.092-1.244-14.51-3.586c1.397-1.244,2.767-2.528,4.101-3.862
	c3.905-3.905,3.906-10.237,0-14.143c-3.906-3.903-10.237-3.904-14.142,0c-14.234,14.233-33.159,22.072-53.288,22.072h-16.88v-4.121
	C330.56,252.195,353.088,229.667,380.779,229.667z M298.56,316.382c0-7.244,5.162-13.304,12-14.698v26.737
	c0,0.895,0.034,1.782,0.068,2.669C303.756,329.722,298.56,323.65,298.56,316.382z M330.56,328.421v-24.414h16.88
	c16.307,0,31.986-4.072,45.886-11.724c9.032,7.28,20.185,11.242,31.951,11.242h5.721v24.896c0,0.995-0.037,1.98-0.095,2.961H420.63
	c-5.523,0-10,4.478-10,10s4.477,10,10,10h4.788c-8.352,16.17-25.219,27.258-44.639,27.258l0,0
	C353.088,378.64,330.56,356.111,330.56,328.421z M380.779,398.64c5.87,0,11.57-0.734,17.024-2.098v3.036
	c0,9.513,4.563,15.648,9.872,19.664c-18.641,4.718-38.082,4.536-56.662-0.543c5.004-4.02,9.173-10.028,9.173-19.121v-4.025
	C366.702,397.556,373.616,398.64,380.779,398.64z M54.937,358.49c5.073,2.866,10.924,4.51,17.154,4.51h2.945
	c4.41,9.315,11.065,17.366,19.268,23.447c-0.064,0.456-0.108,0.918-0.108,1.391v11.74c0,1.882,0,4.011-9.565,7.278l-29.694,6.756
	C54.937,413.612,54.937,358.49,54.937,358.49z M193.351,313.302c6.838,1.394,12,7.454,12,14.698c0,7.353-5.322,13.474-12.313,14.746
	c0.205-2.051,0.313-4.131,0.313-6.236V313.302z M173.351,336.51c0,1.176-0.061,2.338-0.156,3.49h-8.861c-5.523,0-10,4.478-10,10
	s4.477,10,10,10h1.843c-7.575,11.235-20.416,18.64-34.956,18.64c-23.23,0-42.129-18.899-42.129-42.13v-32.25
	c19.842,5.806,40.34,8.744,61.119,8.749l23.141,0.006L173.351,336.51L173.351,336.51z M69.404,342.746
	c-6.991-1.271-12.313-7.393-12.313-14.746c0-7.244,5.162-13.304,12-14.698v23.208C69.091,338.614,69.199,340.694,69.404,342.746z
	 M114.197,399.578v-3.329c5.414,1.545,11.121,2.391,17.024,2.391c7.216,0,14.143-1.25,20.592-3.522v4.461
	c0,9.094,4.169,15.101,9.173,19.121c-18.579,5.079-38.021,5.261-56.662,0.543C109.634,415.227,114.197,409.091,114.197,399.578z
	 M181.378,406.856c-9.565-3.268-9.565-5.396-9.565-7.278v-12.366c0-1.139-0.2-2.229-0.55-3.249
	c6.772-5.724,12.308-12.863,16.143-20.963h2.945c6.23,0,12.081-1.644,17.154-4.51v54.31L181.378,406.856z M131.221,229.667
	c39.107,0,71.418,29.586,75.768,67.548c-4.952-2.687-10.62-4.215-16.638-4.215h-7c-0.194,0-0.388,0.006-0.579,0.017l-32.557-0.008
	c-23.19-0.006-45.997-4.034-67.785-11.974c-4.408-1.604-9.336,0.067-11.857,4.021c-1.301,2.042-1.779,4.408-1.482,6.676v1.406
	c-4.901,0.418-9.519,1.842-13.639,4.078C59.802,259.253,92.113,229.667,131.221,229.667z M20,458.33c0-4.13,0-16.699,26.208-22.222
	c0.052-0.011,0.104-0.022,0.156-0.034l28.242-6.425c18.153,8.675,37.586,13.024,57.021,13.024c19.755,0,39.51-4.484,57.918-13.446
	l30.099,6.848c0.052,0.012,0.104,0.023,0.156,0.034c26.2,5.52,26.2,18.09,26.2,22.221V492H20V458.33z M492,492H266v-33.67
	c0-4.131,0-16.701,26.199-22.222c0.052-0.011,0.104-0.022,0.156-0.034l30.099-6.848c18.41,8.965,38.16,13.446,57.918,13.446
	c19.433,0,38.87-4.35,57.021-13.024l28.242,6.426c0.052,0.012,0.104,0.023,0.156,0.034C492,441.631,492,454.2,492,458.33V492z"/>
<path d="M49.351,162.015H63.24l32.354,32.149c1.911,1.898,4.458,2.906,7.051,2.906c1.293,0,2.598-0.251,3.839-0.768
	c3.729-1.551,6.159-5.193,6.159-9.232v-25.056h60.006c27.212,0,49.351-22.139,49.351-49.351V49.352C222,22.139,199.861,0,172.649,0
	H49.351C22.139,0,0,22.139,0,49.352v63.313C0,139.876,22.139,162.015,49.351,162.015z M20,49.352C20,33.167,33.167,20,49.351,20
	h123.298C188.833,20,202,33.167,202,49.352v63.313c0,16.184-13.167,29.351-29.351,29.351h-70.006c-5.523,0-10,4.478-10,10v11.021
	l-18.231-18.115c-1.874-1.861-4.407-2.906-7.048-2.906H49.351C33.167,142.015,20,128.848,20,112.664V49.352z"/>
<path d="M462.649,0H339.351C312.139,0,290,22.139,290,49.352v63.313c0,27.212,22.139,49.351,49.351,49.351h63.844v25.056
	c0,4.039,2.43,7.682,6.159,9.232c1.241,0.517,2.545,0.768,3.839,0.768c2.591,0,5.14-1.008,7.051-2.906l32.354-32.149h10.051
	c27.212,0,49.351-22.139,49.351-49.351V49.352C512,22.139,489.861,0,462.649,0z M492,112.664c0,16.184-13.167,29.351-29.351,29.351
	h-14.175c-2.641,0-5.175,1.045-7.049,2.906l-18.23,18.115v-11.021c0-5.522-4.477-10-10-10h-73.844
	c-16.184,0-29.351-13.167-29.351-29.351V49.352C310,33.167,323.167,20,339.351,20h123.298C478.833,20,492,33.167,492,49.352V112.664
	z"/>
<path d="M131.63,340c-2.64,0-5.21,1.069-7.07,2.93c-1.86,1.86-2.93,4.44-2.93,7.07s1.07,5.21,2.93,7.069
	c1.86,1.86,4.44,2.931,7.07,2.931s5.21-1.07,7.07-2.931c1.86-1.859,2.93-4.439,2.93-7.069s-1.07-5.21-2.93-7.07
	C136.84,341.069,134.26,340,131.63,340z"/>
<path d="M384,351.38c2.63,0,5.21-1.07,7.07-2.93c1.86-1.86,2.93-4.431,2.93-7.07c0-2.63-1.07-5.21-2.93-7.07
	c-1.86-1.859-4.44-2.93-7.07-2.93s-5.21,1.07-7.07,2.93c-1.86,1.86-2.93,4.44-2.93,7.07s1.07,5.21,2.93,7.07
	C378.79,350.31,381.37,351.38,384,351.38z"/>
<path d="M69.25,67.008h83.5c5.523,0,10-4.478,10-10s-4.477-10-10-10h-83.5c-5.523,0-10,4.478-10,10S63.727,67.008,69.25,67.008z"/>
<path d="M69.25,115.008h83.5c5.523,0,10-4.478,10-10s-4.477-10-10-10h-83.5c-5.523,0-10,4.478-10,10S63.727,115.008,69.25,115.008z"
	/>
<path d="M442.813,47.008h-83.627c-5.523,0-10,4.478-10,10s4.477,10,10,10h83.627c5.523,0,10-4.478,10-10
	S448.336,47.008,442.813,47.008z"/>
<path d="M442.813,95.008h-83.627c-5.523,0-10,4.478-10,10s4.477,10,10,10h83.627c5.523,0,10-4.478,10-10
	S448.336,95.008,442.813,95.008z"/>
<g>
</g>
<g>
</g>
<g>
</g>
<g>
</g>
<g>
</g>
<g>
</g>
<g>
</g>
<g>
</g>
<g>
</g>
<g>
</g>
<g>
</g>
<g>
</g>
<g>
</g>
<g>
</g>
<g>
</g>
</svg>
