<?xml version="1.0" encoding="iso-8859-1"?>
<!-- Generator: Adobe Illustrator 19.0.0, SVG Export Plug-In . SVG Version: 6.00 Build 0)  -->
<svg version="1.1" id="Capa_1" xmlns="http://www.w3.org/2000/svg" xmlns:xlink="http://www.w3.org/1999/xlink" x="0px" y="0px"
	 viewBox="0 0 512 512" style="enable-background:new 0 0 512 512;" xml:space="preserve">
<path style="fill:#7D9BFF;" d="M184.799,95.5V74c0-11.046,7.392-20,16.51-20h58.955h166.047h58.977c9.118,0,16.51,8.954,16.51,20
	v408c0,11.046-7.392,20-16.51,20H201.311c-9.118,0-16.51-8.954-16.51-20v-34V95.5H184.799z"/>
<polygon style="fill:#FFFFFF;" points="165.785,437.086 165.785,452.772 400.073,452.772 453.799,399.045 453.799,357.494 
	453.799,270.244 453.799,98 165.785,98 "/>
<path style="fill:#78D2FA;" d="M246.661,228.471c-0.049-0.119-0.098-0.238-0.148-0.357c-4.563-10.976-2.267-23.599,6.138-32.004
	l3.248-3.248l-33.895-33.895l-3.248,3.248c-8.405,8.405-21.028,10.701-32.004,6.138c-0.119-0.049-0.238-0.099-0.357-0.148
	c-10.34-4.256-17.377-13.889-18.151-24.915C121.181,166.51,88.8,214.97,88.8,271c0,56.018,32.366,104.468,79.412,127.695
	c0.467-11.348,7.569-21.34,18.146-25.69c0.119-0.049,0.238-0.098,0.356-0.147c10.945-4.545,23.528-2.253,31.908,6.127l3.382,3.382
	l33.895-33.895l-3.312-3.312c-8.398-8.398-10.685-21.013-6.115-31.976c0.053-0.127,0.106-0.254,0.158-0.382
	c4.511-10.936,15.052-18.168,26.882-18.168h4.687v-47.935h-4.597C261.741,246.699,251.176,239.44,246.661,228.471z"/>
<path style="fill:#F5C86E;" d="M410.26,54.735c-0.017-0.156-0.05-0.307-0.071-0.462c0.002,0.154,0.012,0.307,0.012,0.462H410.26z"/>
<path style="fill:#FFFFFF;" d="M298.854,54.735h53.878c0-5.923,1.794-11.427,4.865-16h-19.062c0-15.87-12.865-28.735-28.735-28.735
	s-28.735,12.865-28.735,28.735h-53.878c-9.919,0-17.959,8.041-17.959,17.959V98h71.667V72.694
	C280.895,62.775,288.936,54.735,298.854,54.735z"/>
<path style="fill:#F5C86E;" d="M410.372,56.694c0-0.663-0.042-1.315-0.112-1.959h-0.059c0-0.155-0.009-0.308-0.012-0.462
	c-1.185-8.77-8.682-15.538-17.777-15.538h-34.815c-3.072,4.573-4.865,10.077-4.865,16h-53.878c-9.919,0-17.959,8.041-17.959,17.959
	V98h129.477V56.694z"/>
<polygon style="fill:#78D2FA;" points="453.799,399.045 400.073,399.045 400.073,452.772 "/>
<circle style="fill:#FFFFFF;" cx="144.199" cy="270.67" r="71.19"/>
<path d="M453.799,304.74c-2.63,0-5.21,1.07-7.07,2.93c-1.86,1.87-2.93,4.44-2.93,7.07c0,2.64,1.07,5.21,2.93,7.07
	c1.86,1.87,4.44,2.94,7.07,2.94s5.21-1.07,7.07-2.94c1.86-1.85,2.93-4.43,2.93-7.07c0-2.63-1.07-5.21-2.93-7.07
	S456.43,304.74,453.799,304.74z"/>
<path d="M481.799,44H417.31c-4.634-9.051-14.051-15.265-24.899-15.265h-45.186C342.806,12.208,327.702,0,309.799,0
	s-33.006,12.208-37.426,28.735h-45.186c-10.848,0-20.265,6.214-24.899,15.265h-64.489c-16.542,0-30,13.458-30,30v18
	c0,5.523,4.477,10,10,10s10-4.477,10-10V74c0-5.514,4.486-10,10-10h61.428v24h-33.442c-5.523,0-10,4.477-10,10v28.667h-35.554
	c-5.523,0-10,4.477-10,10v4.687c0,7.713-4.703,14.636-11.991,17.642l-0.406,0.168c-7.332,3.055-15.597,1.504-21.058-3.957
	l-3.312-3.312c-3.906-3.904-10.237-3.904-14.142,0L25.428,185.79c-3.905,3.905-3.905,10.237,0,14.142l3.382,3.382
	c5.445,5.444,7,13.688,3.964,20.999l-0.162,0.391c-2.996,7.287-9.915,11.995-17.627,11.995H10.2c-5.523,0-10,4.477-10,10v47.935
	c0,5.523,4.477,10,10,10h4.867c7.689,0,14.591,4.69,17.594,11.975l0.154,0.371c3.042,7.306,1.493,15.542-3.947,20.981l-3.439,3.439
	c-3.905,3.905-3.905,10.237,0,14.142l33.895,33.896c1.875,1.875,4.419,2.929,7.071,2.929s5.196-1.054,7.071-2.929l3.44-3.439
	c5.438-5.439,13.673-6.988,21.068-3.911l0.309,0.128c4.231,1.744,7.579,4.821,9.645,8.602c-0.076,0.495-0.127,0.999-0.127,1.515V482
	c0,16.542,13.458,30,30,30h344c16.542,0,30-13.458,30-30V74C511.799,57.458,498.342,44,481.799,44z M219.229,56.694
	c0-4.389,3.571-7.959,7.959-7.959h53.877c5.523,0,10-4.477,10-10c0-10.331,8.405-18.735,18.735-18.735s18.735,8.404,18.735,18.735
	c0,5.523,4.477,10,10,10h53.877c4.389,0,7.959,3.57,7.959,7.959V88H219.229V56.694z M105.574,363.588
	c-13.191-5.492-27.959-3.521-38.938,4.877l-20.233-20.234c8.398-10.979,10.369-25.747,4.874-38.943l-0.134-0.325
	c-5.424-13.16-17.246-22.173-30.942-23.99v-28.622c13.689-1.844,25.496-10.872,30.915-24.051l0.13-0.313
	c5.469-13.167,3.507-27.905-4.85-38.877l20.258-20.258c10.986,8.326,25.714,10.261,38.867,4.777l0.359-0.148
	c13.118-5.411,22.12-17.173,23.993-30.814h28.671c1.901,13.635,10.917,25.381,24.03,30.778l0.343,0.142
	c13.141,5.462,27.841,3.54,38.825-4.743l20.285,20.284c-8.284,10.982-10.207,25.682-4.749,38.811l0.14,0.339
	c5.404,13.129,17.15,22.147,30.785,24.048v28.671c-13.641,1.872-25.403,10.874-30.809,23.982l-0.148,0.357
	c-5.487,13.162-3.555,27.891,4.772,38.879l-20.258,20.258c-10.972-8.357-25.71-10.317-38.88-4.848l-0.321,0.133
	c-13.168,5.415-22.196,17.22-24.04,30.91h-28.622c-1.817-13.697-10.831-25.518-23.998-30.945L105.574,363.588z M491.799,482
	c0,5.514-4.486,10-10,10h-344c-5.514,0-10-4.486-10-10v-67.333h40.367c5.523,0,10-4.477,10-10v-4.786
	c0-7.711,4.708-14.63,12.029-17.641l0.354-0.146c7.312-3.037,15.557-1.482,21.001,3.962l3.381,3.382
	c1.875,1.875,4.419,2.929,7.071,2.929l0,0c2.652,0,5.196-1.054,7.071-2.929l33.895-33.895c1.875-1.875,2.929-4.419,2.929-7.072
	s-1.054-5.196-2.929-7.071l-3.312-3.311c-5.459-5.46-7.013-13.725-3.951-21.069l0.168-0.405c3.001-7.277,9.924-11.98,17.637-11.98
	h4.687c5.523,0,10-4.477,10-10V246.7c0-5.523-4.477-10-10-10h-4.596c-7.74,0-14.686-4.724-17.689-12.021l-0.167-0.404
	c-3.054-7.346-1.494-15.625,3.975-21.093l3.248-3.249c1.875-1.875,2.929-4.418,2.929-7.071s-1.054-5.196-2.929-7.071l-33.896-33.895
	c-3.905-3.905-10.237-3.904-14.142,0l-3.248,3.248c-5.469,5.469-13.75,7.028-21.062,3.989l-0.421-0.175
	c-7.311-3.009-12.035-9.954-12.035-17.694v-4.597c0-2.468-0.899-4.724-2.381-6.468V108h268.014v162.244c0,5.523,4.477,10,10,10
	s10-4.477,10-10V98c0-5.523-4.477-10-10-10h-33.428V64h61.43c5.514,0,10,4.486,10,10V482z"/>
<path d="M309.346,54h-0.138c-5.523,0-10,4.477-10,10s4.477,10,10,10h0.138c5.523,0,10-4.477,10-10S314.87,54,309.346,54z"/>
<path d="M182.276,244.29c-3.905-3.905-10.237-3.905-14.142,0l-31.542,31.542l-16.327-16.327c-3.905-3.905-10.237-3.905-14.143,0
	c-3.905,3.905-3.905,10.237,0,14.143l23.398,23.398c1.953,1.953,4.512,2.929,7.071,2.929s5.119-0.977,7.071-2.929l38.613-38.613
	C186.182,254.526,186.182,248.195,182.276,244.29z"/>
<path d="M453.799,347.494c-5.523,0-10,4.477-10,10v31.551h-43.728c-5.523,0-10,4.477-10,10v43.728H165.786c-5.523,0-10,4.477-10,10
	s4.477,10,10,10h234.286c2.652,0,5.196-1.054,7.071-2.929l53.728-53.728c1.875-1.875,2.929-4.419,2.929-7.071v-41.551
	C463.799,351.971,459.323,347.494,453.799,347.494z M429.658,409.045l-19.585,19.585v-19.585H429.658z"/>
<path d="M225.386,270.667c0-44.767-36.42-81.188-81.188-81.188s-81.188,36.42-81.188,81.188s36.42,81.188,81.188,81.188
	S225.386,315.434,225.386,270.667z M83.012,270.667c0-33.739,27.449-61.188,61.188-61.188s61.188,27.449,61.188,61.188
	s-27.449,61.188-61.188,61.188S83.012,304.405,83.012,270.667z"/>
<path d="M360.799,175h49.572c5.523,0,10-4.477,10-10s-4.477-10-10-10h-49.572c-5.523,0-10,4.477-10,10S355.277,175,360.799,175z"/>
<path d="M319.799,175c2.63,0,5.21-1.07,7.07-2.93s2.93-4.44,2.93-7.07s-1.07-5.21-2.93-7.07s-4.44-2.93-7.07-2.93
	s-5.21,1.07-7.07,2.93c-1.86,1.86-2.93,4.44-2.93,7.07s1.07,5.21,2.93,7.07C314.59,173.93,317.17,175,319.799,175z"/>
<path d="M319.799,235h90.572c5.523,0,10-4.477,10-10s-4.477-10-10-10h-90.572c-5.523,0-10,4.477-10,10S314.277,235,319.799,235z"/>
<path d="M319.799,295h90.572c5.523,0,10-4.477,10-10s-4.477-10-10-10h-90.572c-5.523,0-10,4.477-10,10S314.277,295,319.799,295z"/>
<path d="M319.799,355h90.572c5.523,0,10-4.477,10-10s-4.477-10-10-10h-90.572c-5.523,0-10,4.477-10,10S314.277,355,319.799,355z"/>
<g>
</g>
<g>
</g>
<g>
</g>
<g>
</g>
<g>
</g>
<g>
</g>
<g>
</g>
<g>
</g>
<g>
</g>
<g>
</g>
<g>
</g>
<g>
</g>
<g>
</g>
<g>
</g>
<g>
</g>
</svg>
