<?xml version="1.0" encoding="iso-8859-1"?>
<!-- Generator: Adobe Illustrator 19.0.0, SVG Export Plug-In . SVG Version: 6.00 Build 0)  -->
<svg version="1.1" id="Capa_1" xmlns="http://www.w3.org/2000/svg" xmlns:xlink="http://www.w3.org/1999/xlink" x="0px" y="0px"
	 viewBox="0 0 512 512" style="enable-background:new 0 0 512 512;" xml:space="preserve">
<path style="fill:#F5C86E;" d="M174.184,108.625c-37.51,11.643-64.751,46.62-64.751,87.959V341.04h129.503V196.585
	C238.936,155.245,211.695,120.269,174.184,108.625z"/>
<path style="fill:#FFFFFF;" d="M128.96,234.36v-42.297c-3.191-1.396-6.333-2.909-9.406-4.563H88.71v46.86
	c0,32.11,26.03,58.14,58.14,58.14l0,0c7.075,0,13.854-1.267,20.125-3.581C144.785,280.731,128.96,259.395,128.96,234.36z"/>
<path style="fill:#FFCDAC;" d="M204.991,234.36v-31.515h-24.557c-17.838,0-35.346-3.729-51.473-10.782v42.297
	c0,25.035,15.825,46.371,38.016,54.56C189.167,280.731,204.991,259.395,204.991,234.36z"/>
<path style="fill:#78D2FA;" d="M356.256,12.542C350.14,15.963,346,22.494,346,30v108.346c0,9.622,6.852,17.88,16.308,19.656
	l58.216,10.935c9.457,1.776,16.308,10.034,16.308,19.656v134.814c0,9.622-6.852,17.88-16.308,19.656l-58.216,10.935
	C352.852,355.774,346,364.032,346,373.654V482c0,7.506,4.14,14.037,10.256,17.458C418.801,487.223,466,432.128,466,366V146
	C466,79.872,418.801,24.777,356.256,12.542z"/>
<g>
	<path style="fill:#F0F0FA;" d="M379,495.38c-6.757,2.192-13.747,3.864-20.92,4.983c2.43,1.05,5.105,1.637,7.92,1.637l0,0
		c14.659,0,28.771-2.329,42-6.62V345.416l-29,5.447V495.38z"/>
	<path style="fill:#F0F0FA;" d="M366,10L366,10c-2.815,0-5.491,0.588-7.92,1.637c7.173,1.119,14.164,2.791,20.92,4.983v144.517
		l29,5.447V16.62C394.771,12.329,380.659,10,366,10z"/>
</g>
<g>
	<path style="fill:#C8F5FF;" d="M379,350.863l-16.692,3.135C352.852,355.774,346,364.032,346,373.654V482
		c0,8.231,4.975,15.294,12.08,18.363c7.173-1.119,14.164-2.791,20.92-4.983V350.863z"/>
	<path style="fill:#C8F5FF;" d="M358.08,11.637C350.975,14.706,346,21.769,346,30v108.346c0,9.622,6.852,17.88,16.308,19.656
		L379,161.137V16.62C372.243,14.428,365.253,12.756,358.08,11.637z"/>
</g>
<g>
	<path style="fill:#FF5A5A;" d="M113.458,311.467c0.439-0.979,0.776-2.028,1.002-3.158
		C114.233,309.439,113.896,310.488,113.458,311.467z"/>
	<polygon style="fill:#FF5A5A;" points="114.804,291.609 114.804,291.609 178.909,290.912 	"/>
	<path style="fill:#FF5A5A;" d="M179.253,308.309c0.227,1.13,0.563,2.179,1.002,3.158
		C179.816,310.488,179.48,309.439,179.253,308.309z"/>
	<path style="fill:#FF5A5A;" d="M180.255,311.467c0.367,0.817,0.821,1.575,1.327,2.299
		C181.076,313.042,180.622,312.284,180.255,311.467z"/>
	<path style="fill:#FF5A5A;" d="M185.941,318.038c1.217,0.861,2.558,1.655,4.037,2.386
		C188.499,319.693,187.158,318.899,185.941,318.038z"/>
	<path style="fill:#FF5A5A;" d="M96.06,323.492c1.406-0.471,2.754-0.956,4.036-1.464C98.814,322.536,97.466,323.021,96.06,323.492z"
		/>
	<path style="fill:#FF5A5A;" d="M103.735,320.424c1.479-0.731,2.82-1.525,4.037-2.386
		C106.555,318.899,105.214,319.693,103.735,320.424z"/>
	<path style="fill:#FF5A5A;" d="M112.131,313.766c0.505-0.724,0.96-1.482,1.327-2.299
		C113.091,312.284,112.636,313.042,112.131,313.766z"/>
	<path style="fill:#FF5A5A;" d="M111.673,314.4c-0.599,0.769-1.268,1.492-2.021,2.166
		C110.404,315.893,111.073,315.169,111.673,314.4z"/>
	<path style="fill:#FF5A5A;" d="M193.618,322.028c1.281,0.508,2.629,0.993,4.036,1.464
		C196.247,323.021,194.899,322.536,193.618,322.028z"/>
	<path style="fill:#FF5A5A;" d="M184.062,316.567c-0.753-0.674-1.422-1.398-2.021-2.166
		C182.639,315.169,183.309,315.893,184.062,316.567z"/>
	<path style="fill:#FF5A5A;" d="M283.702,407.5v-37.461c0-19.668-15.36-30.845-37.98-35.611l-37.981-8.641l-1.185,1.804l0,0
		c-26.653,13.013-56.495,16.808-85.015,11.411c-8.251,6.844-13.04,15.987-13.04,27.776V407.5h5.999H283.702z"/>
</g>
<g>
	<path style="fill:#FFCDAC;" d="M100.095,322.028c1.282-0.508,2.498-1.04,3.64-1.604
		C102.593,320.988,101.377,321.52,100.095,322.028z"/>
	<path style="fill:#FFCDAC;" d="M107.772,318.038c0.664-0.469,1.301-0.953,1.879-1.471
		C109.073,317.084,108.435,317.568,107.772,318.038z"/>
	<path style="fill:#FFCDAC;" d="M111.673,314.4c0.161-0.206,0.309-0.42,0.458-0.634C111.982,313.98,111.833,314.194,111.673,314.4z"
		/>
	<path style="fill:#FFCDAC;" d="M181.582,313.766c0.149,0.214,0.297,0.428,0.458,0.634
		C181.879,314.194,181.731,313.98,181.582,313.766z"/>
	<path style="fill:#FFCDAC;" d="M184.062,316.567c0.579,0.518,1.216,1.001,1.879,1.471
		C185.278,317.568,184.64,317.084,184.062,316.567z"/>
	<path style="fill:#FFCDAC;" d="M189.978,320.424c1.142,0.564,2.358,1.096,3.64,1.604
		C192.336,321.52,191.12,320.988,189.978,320.424z"/>
	<path style="fill:#FFCDAC;" d="M207.74,325.786l-10.087-2.294L207.74,325.786z"/>
</g>
<path style="fill:#FFFFFF;" d="M126.196,334.87c2.442-1.207,4.658-2.519,6.668-3.941c1.096-0.776,2.149-1.574,3.104-2.43
	c1.244-1.113,2.35-2.309,3.339-3.579c0.266-0.341,0.511-0.695,0.757-1.047c0.835-1.196,1.585-2.448,2.192-3.798
	c0.725-1.616,1.281-3.35,1.656-5.216s0.568-3.864,0.568-6.01v-17.562l-29.676,0.322v13.062c0,1.299-0.117,2.509-0.344,3.639
	c-0.227,1.13-0.563,2.179-1.002,3.158c-0.367,0.817-0.821,1.575-1.327,2.299c-0.149,0.214-0.297,0.428-0.458,0.634
	c-0.599,0.769-1.268,1.492-2.021,2.166c-0.579,0.518-1.216,1.001-1.879,1.471c-1.217,0.861-2.558,1.655-4.037,2.386
	c-1.142,0.564-2.358,1.096-3.64,1.604c-1.281,0.508-2.629,0.993-4.036,1.464l-10.444,2.376l1.531,1.723l0,0
	c9.953,4.859,20.354,8.422,30.961,10.714c0.697-0.26,1.4-0.518,2.075-0.785C122.3,336.68,124.309,335.802,126.196,334.87z"/>
<path style="fill:#FFCDAC;" d="M206.555,327.591L206.555,327.591l1.185-1.805l-10.087-2.295c-1.406-0.471-2.754-0.956-4.036-1.464
	s-2.498-1.04-3.64-1.604c-1.479-0.731-2.82-1.525-4.037-2.386c-0.664-0.469-1.301-0.953-1.879-1.471
	c-0.753-0.674-1.422-1.398-2.021-2.166c-0.161-0.206-0.309-0.42-0.458-0.634c-0.505-0.724-0.96-1.482-1.327-2.299
	c-0.439-0.979-0.776-2.028-1.002-3.158c-0.227-1.13-0.344-2.339-0.344-3.639v-13.759l-34.429,0.374v17.562
	c0,2.146-0.193,4.145-0.568,6.01c-0.375,1.866-0.931,3.599-1.656,5.216c-0.606,1.35-1.357,2.602-2.192,3.798
	c-0.246,0.353-0.491,0.707-0.757,1.047c-0.99,1.27-2.095,2.465-3.339,3.579c-0.956,0.855-2.008,1.654-3.104,2.43
	c-2.01,1.423-4.226,2.734-6.668,3.941c-1.887,0.932-3.896,1.811-6.013,2.65c-0.675,0.268-1.378,0.525-2.075,0.785
	C147.656,344.689,178.831,341.127,206.555,327.591z"/>
<path d="M366,0c-16.542,0-30,13.458-30,30v108.346c0,14.422,10.287,26.821,24.462,29.484l58.216,10.935
	c4.725,0.888,8.154,5.021,8.154,9.828V202.5c0,5.522,4.478,10,10,10s10-4.478,10-10v-13.907c0-14.422-10.287-26.821-24.462-29.484
	l-58.216-10.935c-4.726-0.888-8.154-5.021-8.154-9.828V30c0-5.514,4.486-10,10-10c11.054,0,21.777,1.436,32,4.122v91.825
	c0,5.522,4.478,10,10,10s10-4.478,10-10V31.239C461.606,51.075,492,95.054,492,146v220c0,50.946-30.394,94.925-74,114.761v-72.95
	c0-5.522-4.478-10-10-10s-10,4.478-10,10v80.066c-10.223,2.686-20.946,4.122-32,4.122c-5.514,0-10-4.486-10-10V373.654
	c0-4.808,3.429-8.94,8.153-9.828l58.218-10.935c14.174-2.663,24.461-15.063,24.461-29.484v-18.74c0-5.522-4.478-10-10-10
	s-10,4.478-10,10v18.74c0,4.808-3.43,8.94-8.153,9.828l-58.218,10.935C346.287,346.833,336,359.232,336,373.654V482
	c0,16.542,13.458,30,30,30c80.505,0,146-65.495,146-146V146C512,65.495,446.505,0,366,0z"/>
<path d="M436.832,264.5c5.522,0,10-4.478,10-10v-0.969c0-5.522-4.478-10-10-10s-10,4.478-10,10v0.969
	C426.832,260.022,431.31,264.5,436.832,264.5z"/>
<path d="M75.83,397.45c-2.63,0-5.21,1.069-7.07,2.93s-2.93,4.43-2.93,7.07c0,2.63,1.069,5.21,2.93,7.069
	c1.86,1.86,4.44,2.931,7.07,2.931s5.21-1.07,7.069-2.931c1.87-1.859,2.931-4.439,2.931-7.069c0-2.631-1.061-5.21-2.931-7.07
	C81.04,398.52,78.46,397.45,75.83,397.45z"/>
<path d="M156.853,73.997c1.548,0,3.119-0.36,4.588-1.12c41.925-21.696,90.586-28.297,137.013-18.589
	c5.409,1.135,10.706-2.336,11.835-7.741c1.131-5.406-2.336-10.705-7.741-11.835c-50.92-10.648-104.297-3.401-150.298,20.401
	c-4.905,2.538-6.824,8.572-4.286,13.478C149.741,72.026,153.234,73.997,156.853,73.997z"/>
<path d="M302.708,456.596c-47.623,11.017-97.679,4.805-140.94-17.482c-4.912-2.53-10.941-0.601-13.47,4.31
	c-2.529,4.91-0.6,10.94,4.31,13.47c32.13,16.552,67.666,25.022,103.477,25.022c17.095,0,34.253-1.931,51.13-5.833
	c5.381-1.245,8.734-6.615,7.49-11.996C313.459,458.704,308.084,455.354,302.708,456.596z"/>
<path d="M277.161,256c0,5.522,4.478,10,10,10h72.696l-8.203,8.203c-3.905,3.905-3.905,10.237,0,14.143
	c1.953,1.952,4.512,2.929,7.071,2.929s5.118-0.977,7.071-2.929l25.274-25.274c3.905-3.905,3.905-10.237,0-14.143l-25.274-25.274
	c-3.906-3.904-10.236-3.904-14.143,0c-3.905,3.905-3.905,10.237,0,14.143l8.203,8.203H287.16
	C281.639,246,277.161,250.478,277.161,256z"/>
<path d="M293.702,407.5v-37.461c0-13.208-5.87-36.503-44.767-45.134v-128.32c0-56.29-45.795-102.085-102.085-102.085
	c-56.289,0-102.084,45.795-102.084,102.085v128.323C5.868,333.542,0,356.832,0,370.039V407.5c0,5.522,4.478,10,10,10h31.244
	c5.522,0,10-4.478,10-10s-4.478-10-10-10H20v-27.461c0-4.821,0-19.493,30.053-25.826c0.053-0.011,0.104-0.022,0.157-0.034
	l31.802-7.235c19.647,9.445,41.516,14.444,63.313,14.444c22.084,0,44.246-5.122,64.092-14.811c0.068-0.033,0.129-0.074,0.196-0.108
	l33.89,7.71c0.053,0.012,0.104,0.023,0.157,0.034c30.042,6.331,30.042,21.004,30.042,25.826V397.5H114.499c-5.522,0-10,4.478-10,10
	s4.478,10,10,10h169.203C289.225,417.5,293.702,413.022,293.702,407.5z M146.851,114.5c45.262,0,82.085,36.823,82.085,82.085
	v123.768l-28.565-6.499c-11.461-3.909-11.461-6.71-11.461-9.184v-16.798c15.782-12.464,25.941-31.748,25.941-53.373v-28.678
	c0-5.522-4.478-10-10-10h-32.519c-27.938,0-55.379-9.561-77.268-26.919c-3.006-2.384-7.109-2.839-10.564-1.169
	c-3.455,1.669-5.649,5.168-5.649,9.004V234.5c0,21.63,10.164,40.919,25.953,53.382v16.789c0,2.474-0.001,5.274-11.461,9.184
	l-28.576,6.501V196.585C64.767,151.323,101.589,114.5,146.851,114.5z M98.851,234.5v-38.796
	c22.146,13.067,47.63,20.118,73.481,20.118h22.519V234.5c0,26.468-21.532,48-48,48S98.851,260.968,98.851,234.5z M112.4,327.042
	c6.486-4.224,12.404-11.026,12.404-22.371v-5.86c6.919,2.379,14.331,3.689,22.047,3.689c7.72,0,15.136-1.312,22.059-3.693v5.864
	c0,10.822,5.386,17.509,11.511,21.769C158.168,332.946,134.729,333.139,112.4,327.042z"/>
<g>
</g>
<g>
</g>
<g>
</g>
<g>
</g>
<g>
</g>
<g>
</g>
<g>
</g>
<g>
</g>
<g>
</g>
<g>
</g>
<g>
</g>
<g>
</g>
<g>
</g>
<g>
</g>
<g>
</g>
</svg>
