<?xml version="1.0" encoding="iso-8859-1"?>
<!-- Generator: Adobe Illustrator 19.0.0, SVG Export Plug-In . SVG Version: 6.00 Build 0)  -->
<svg version="1.1" id="Capa_1" xmlns="http://www.w3.org/2000/svg" xmlns:xlink="http://www.w3.org/1999/xlink" x="0px" y="0px"
	 viewBox="0 0 512 512" style="enable-background:new 0 0 512 512;" xml:space="preserve">
<path style="fill:#C8F5FF;" d="M272.333,10.765c-48.996,6.083-86.917,47.866-86.917,98.508v82.152h27.779h118.582h27.472v-82.152
	C359.25,58.63,321.329,16.848,272.333,10.765z"/>
<g>
	<path style="fill:#878791;" d="M329.75,172.25v-59c0-32.511-21.046-60.089-50.25-69.904c-29.204,9.815-50.25,37.392-50.25,69.904
		v59c0,32.511,21.046,60.089,50.25,69.904C308.704,232.339,329.75,204.761,329.75,172.25z"/>
	<path style="fill:#878791;" d="M262.8,245.676c-0.691,0.063-1.386,0.115-2.083,0.158C261.413,245.789,262.108,245.74,262.8,245.676
		z"/>
	<path style="fill:#878791;" d="M259.448,245.913C258.305,245.966,257.156,246,256,246C257.157,246,258.305,245.966,259.448,245.913
		z"/>
	<path style="fill:#878791;" d="M268.756,244.878c-0.288,0.05-0.574,0.107-0.864,0.154
		C268.182,244.985,268.468,244.929,268.756,244.878z"/>
	<path style="fill:#878791;" d="M266.005,245.306c-0.531,0.072-1.063,0.142-1.597,0.203
		C264.942,245.448,265.474,245.379,266.005,245.306z"/>
	<polygon style="fill:#878791;" points="279.5,242.154 279.5,242.154 279.494,242.155 	"/>
</g>
<g>
	<path style="fill:#FFCDAC;" d="M326.755,141.967c-19.017,0-37.316-6.835-51.661-19.114c-14.162,8.302-29.671,14.114-45.843,17.186
		v32.211c0,32.511,21.046,60.088,50.25,69.904c29.204-9.815,50.25-37.392,50.25-69.904v-30.283H326.755z"/>
	<path style="fill:#FFCDAC;" d="M279.494,242.155c-3.471,1.166-7.06,2.076-10.738,2.723
		C272.437,244.236,276.022,243.322,279.494,242.155z"/>
	<path style="fill:#FFCDAC;" d="M267.892,245.032c-0.625,0.102-1.257,0.188-1.887,0.274
		C266.636,245.22,267.266,245.134,267.892,245.032z"/>
	<path style="fill:#FFCDAC;" d="M264.408,245.509c-0.534,0.061-1.07,0.117-1.608,0.167
		C263.338,245.626,263.873,245.57,264.408,245.509z"/>
	<path style="fill:#FFCDAC;" d="M260.716,245.834c-0.422,0.027-0.844,0.059-1.268,0.079
		C259.873,245.893,260.294,245.861,260.716,245.834z"/>
</g>
<path style="fill:#FFFFFF;" d="M229.25,172.25v-32.211V113.25c0-32.511,21.046-60.089,50.25-69.904
	c-7.384-2.481-15.28-3.846-23.5-3.846c-40.731,0-73.75,33.019-73.75,73.75v29.326v29.674c0,40.731,33.019,73.75,73.75,73.75
	c1.156,0,2.305-0.034,3.448-0.087c0.425-0.02,0.846-0.052,1.268-0.079c0.697-0.044,1.392-0.095,2.083-0.158
	c0.538-0.05,1.074-0.105,1.608-0.167c0.535-0.061,1.066-0.131,1.597-0.203c0.631-0.086,1.262-0.172,1.887-0.274
	c0.289-0.047,0.575-0.104,0.864-0.154c3.678-0.647,7.267-1.556,10.738-2.723c0.002-0.001,0.004-0.001,0.006-0.002
	C250.296,232.338,229.25,204.761,229.25,172.25z"/>
<g>
	<path style="fill:#FF5A5A;" d="M381.25,118.099v70.652c14.056-5.575,24-19.285,24-35.326l0,0
		C405.25,137.384,395.306,123.675,381.25,118.099z"/>
	<path style="fill:#FF5A5A;" d="M152.75,118.296c-13.792,5.699-23.5,19.278-23.5,35.129l0,0c0,15.851,9.708,29.429,23.5,35.129
		V118.296z"/>
</g>
<g>
	<path style="fill:#FFCDAC;" d="M286.309,264.285v-18.961l-29.505-0.32v28.102c0,8.531-2.866,14.876-7.918,19.898
		c14.404,1.512,29.182-1.577,42.052-9.277l5.799-4.591C290.279,275.941,286.309,271.629,286.309,264.285z"/>
	<path style="fill:#FFCDAC;" d="M324.449,286.69l-20.412-4.636c-0.097-0.032-0.188-0.066-0.284-0.099
		c0.096,0.032,0.187,0.066,0.284,0.099L324.449,286.69z"/>
	<path style="fill:#FFCDAC;" d="M208.014,282.033c-0.021,0.007-0.04,0.014-0.06,0.021l-29.684,6.741l29.684-6.741
		C207.974,282.047,207.993,282.04,208.014,282.033z"/>
	<path style="fill:#FFCDAC;" d="M210.019,281.334c0.052-0.019,0.103-0.039,0.155-0.059
		C210.121,281.295,210.071,281.315,210.019,281.334z"/>
	<path style="fill:#FFCDAC;" d="M302.052,281.364c0.007,0.002,0.013,0.005,0.02,0.008
		C302.065,281.369,302.059,281.367,302.052,281.364z"/>
</g>
<g>
	<path style="fill:#D7D7E6;" d="M210.173,281.275c1.99-0.728,3.827-1.504,5.495-2.357C214,279.771,212.16,280.546,210.173,281.275z"
		/>
	<path style="fill:#D7D7E6;" d="M208.014,282.033c0.684-0.229,1.352-0.462,2.005-0.699
		C209.366,281.572,208.697,281.804,208.014,282.033z"/>
	<path style="fill:#D7D7E6;" d="M126.573,326c0-1.161,0.057-2.29,0.168-3.388C126.629,323.71,126.573,324.839,126.573,326z"/>
	<path style="fill:#D7D7E6;" d="M126.741,322.612c0.167-1.647,0.458-3.226,0.866-4.736
		C127.199,319.386,126.908,320.964,126.741,322.612z"/>
	<path style="fill:#D7D7E6;" d="M128.578,314.945c1.123-2.842,2.698-5.417,4.674-7.738
		C131.276,309.528,129.701,312.103,128.578,314.945z"/>
	<path style="fill:#D7D7E6;" d="M349.497,292.379l-25.048-5.689L349.497,292.379c21.394,4.5,35.92,15.053,35.92,33.621l0,0
		C385.417,307.431,370.891,296.879,349.497,292.379z"/>
	<path style="fill:#D7D7E6;" d="M162.493,292.379l15.776-3.583L162.493,292.379c-12.703,2.672-22.984,7.478-29.242,14.828
		C139.509,299.856,149.791,295.051,162.493,292.379z"/>
	<path style="fill:#D7D7E6;" d="M296.737,279.136L296.737,279.136c1.623,0.803,3.402,1.536,5.315,2.228
		C300.139,280.672,298.359,279.939,296.737,279.136z"/>
	<path style="fill:#D7D7E6;" d="M302.072,281.372c0.548,0.198,1.112,0.392,1.681,0.584
		C303.184,281.763,302.62,281.57,302.072,281.372z"/>
	<path style="fill:#D7D7E6;" d="M349.497,292.379l-25.048-5.689l-20.412-4.636c-0.097-0.032-0.188-0.066-0.284-0.099
		c-0.569-0.192-1.133-0.386-1.681-0.584c-0.007-0.002-0.013-0.005-0.02-0.008c-1.913-0.692-3.693-1.425-5.315-2.228l-5.799,4.591
		c-14.883,8.905-32.32,11.645-48.777,8.228c-7.383,3.095-13.48,7.157-17.863,12.305c-2.286,2.685-4.107,5.664-5.406,8.951
		c-0.433,1.096-0.808,2.226-1.123,3.391c-0.472,1.747-0.809,3.573-1.002,5.479c-0.129,1.271-0.195,2.577-0.195,3.919h168.845
		C385.417,307.431,370.891,296.879,349.497,292.379z"/>
</g>
<path style="fill:#78D2FA;" d="M418,502H177.5V361.324c0-19.509,15.815-35.324,35.324-35.324h169.852
	C402.185,326,418,341.815,418,361.324V502z"/>
<circle style="fill:#FFFFFF;" cx="256.13" cy="423.13" r="26.13"/>
<path d="M256.884,201.376c0.336,0.035,0.675,0.054,1.015,0.054c2.631,0,5.2-1.07,7.061-2.939c1.87-1.86,2.939-4.431,2.939-7.061
	c0-2.64-1.069-5.21-2.939-7.08c-1.86-1.859-4.43-2.92-7.061-2.92c-0.297,0-0.593,0.018-0.887,0.044
	c-0.336-0.035-0.673-0.054-1.012-0.054c-2.63,0-5.21,1.07-7.07,2.93c-1.86,1.87-2.93,4.44-2.93,7.07c0,2.64,1.069,5.21,2.93,7.08
	c1.86,1.859,4.44,2.92,7.07,2.92C256.296,201.42,256.591,201.402,256.884,201.376z"/>
<path d="M448,492h-20V367c0-21.835-13.797-40.503-33.129-47.76c-2.097-12.837-11.22-29.871-43.236-36.63l-44.886-10.194
	c-10.44-3.557-10.44-5.984-10.44-8.13v-18.651c17.467-9.633,31.145-25.316,38.19-44.21h32.751c26.468,0,48-21.532,48-48
	c0-25.822-20.496-46.935-46.073-47.951C367.167,46.974,318.958,0,259.978,0h-7.955c-58.981,0-107.189,46.974-109.199,105.474
	c-25.577,1.016-46.073,22.13-46.073,47.951c0,26.468,21.532,48,48,48h32.751c7.044,18.89,20.718,34.571,38.18,44.204v18.656
	c0,2.146,0,4.573-10.44,8.13l-44.889,10.195c-32.013,6.76-41.137,23.796-43.234,36.633C97.793,326.504,84,345.169,84,367v125H64
	c-5.522,0-10,4.478-10,10s4.478,10,10,10h384c5.522,0,10-4.478,10-10S453.522,492,448,492z M319.75,131.597
	c-14.011-1.428-27.353-7.096-38.153-16.34c-3.24-2.773-7.881-3.187-11.561-1.03c-20.477,12.005-43.833,18.35-67.543,18.35H192.25
	V113.25c0-35.151,28.599-63.75,63.75-63.75s63.75,28.599,63.75,63.75V131.597z M395.25,153.425c0,14.767-11.491,26.899-26,27.93
	v-55.859C383.759,126.525,395.25,138.658,395.25,153.425z M116.75,153.425c0-14.767,11.491-26.899,26-27.93v55.859
	C128.241,180.324,116.75,168.191,116.75,153.425z M162.75,181.425v-66v-6.152C162.75,60.048,202.798,20,252.022,20h7.955
	c49.225,0,89.272,40.048,89.272,89.272v6.152v66h-10.013c0.33-3.015,0.513-6.073,0.513-9.175v-59c0-46.18-37.57-83.75-83.75-83.75
	s-83.75,37.57-83.75,83.75v59c0,3.101,0.183,6.16,0.513,9.175L162.75,181.425L162.75,181.425z M192.25,172.25v-19.674h10.243
	c24.966,0,49.59-6.118,71.641-17.748c13.362,9.723,29.167,15.564,45.616,16.861v20.56c0,3.116-0.235,6.177-0.669,9.175H296
	c-5.522,0-10,4.478-10,10s4.478,10,10,10h16.653C302.046,221.937,280.641,236,256,236C220.849,236,192.25,207.401,192.25,172.25z
	 M256,256c7.003,0,13.803-0.876,20.309-2.503v10.788c0,5.668,1.587,10.169,3.983,13.767c-15.424,7.119-33.168,7.118-48.591-0.003
	c2.395-3.597,3.981-8.097,3.981-13.763v-10.791C242.19,255.123,248.994,256,256,256z M164.552,302.165
	c0.052-0.012,0.104-0.022,0.156-0.034l45.46-10.325c0.322-0.073,0.641-0.163,0.954-0.268c0.766-0.256,1.682-0.563,2.695-0.93
	c0.612,0.643,1.312,1.222,2.111,1.7C228.287,299.703,242.144,303.4,256,303.4c13.857,0,27.714-3.697,40.072-11.092
	c0.798-0.477,1.497-1.055,2.108-1.697c1.01,0.365,1.924,0.672,2.688,0.928c0.313,0.104,0.632,0.194,0.954,0.268l45.46,10.325
	c0.052,0.012,0.104,0.022,0.156,0.034c15.372,3.233,22.289,8.767,25.41,13.835H139.142
	C142.263,310.932,149.18,305.398,164.552,302.165z M152,492v-71.267c0-5.522-4.478-10-10-10s-10,4.478-10,10V492h-28V367
	c0-17.094,13.906-31,31-31h242c17.094,0,31,13.906,31,31v125H152z"/>
<path d="M256.127,387c-19.922,0-36.129,16.207-36.129,36.129c0,19.921,16.207,36.128,36.129,36.128s36.129-16.207,36.129-36.128
	C292.256,403.207,276.049,387,256.127,387z M256.127,439.257c-8.894,0-16.129-7.235-16.129-16.128
	c0-8.894,7.235-16.129,16.129-16.129c8.894,0,16.129,7.235,16.129,16.129C272.256,432.021,265.021,439.257,256.127,439.257z"/>
<path d="M142,373.229c-2.63,0-5.21,1.07-7.07,2.931c-1.86,1.859-2.93,4.43-2.93,7.069c0,2.63,1.069,5.21,2.93,7.07
	s4.44,2.93,7.07,2.93s5.21-1.069,7.069-2.93c1.86-1.86,2.931-4.44,2.931-7.07s-1.07-5.21-2.931-7.069
	C147.21,374.3,144.63,373.229,142,373.229z"/>
<g>
</g>
<g>
</g>
<g>
</g>
<g>
</g>
<g>
</g>
<g>
</g>
<g>
</g>
<g>
</g>
<g>
</g>
<g>
</g>
<g>
</g>
<g>
</g>
<g>
</g>
<g>
</g>
<g>
</g>
</svg>
