<?xml version="1.0" encoding="iso-8859-1"?>
<!-- Generator: Adobe Illustrator 19.0.0, SVG Export Plug-In . SVG Version: 6.00 Build 0)  -->
<svg version="1.1" id="Capa_1" xmlns="http://www.w3.org/2000/svg" xmlns:xlink="http://www.w3.org/1999/xlink" x="0px" y="0px"
	 viewBox="0 0 512 512" style="enable-background:new 0 0 512 512;" xml:space="preserve">
<path style="fill:#78D2FA;" d="M353.874,215.693c-0.047-0.114-0.094-0.228-0.141-0.341c-4.359-10.485-2.166-22.542,5.863-30.571
	l3.102-3.102l-32.377-32.377l-3.102,3.102c-8.029,8.029-20.086,10.222-30.571,5.863c-0.114-0.047-0.227-0.094-0.341-0.141
	c-9.673-3.981-16.313-12.892-17.278-23.152C233.737,156.903,202.5,203.302,202.5,257c0,53.651,31.183,100.016,76.412,121.968
	c0.186-11.116,7.047-20.971,17.359-25.212c0.114-0.047,0.227-0.094,0.34-0.141c10.454-4.342,22.474-2.152,30.479,5.853l3.23,3.23
	l32.377-32.377l-3.164-3.164c-8.022-8.022-10.207-20.072-5.841-30.544c0.051-0.121,0.101-0.243,0.151-0.365
	c4.309-10.446,14.378-17.354,25.678-17.354H384v-45.789h-4.391C368.278,233.106,358.187,226.171,353.874,215.693z"/>
<circle style="fill:#FFFFFF;" cx="256" cy="256" r="68"/>
<path style="fill:#D7D7E6;" d="M318.252,23h-13.66h-65.831h-12.994C140.844,23,72,91.844,72,176.769v61.479h16v-53.994
	C88,121.705,138.705,71,201.253,71H217h16.253H249h45.5h16.246H326.5h16.246C405.295,71,456,121.705,456,184.253v53.994h16.021
	v-61.479C472.021,91.844,403.176,23,318.252,23z"/>
<path style="fill:#878791;" d="M304.127,461L304.127,461c0-15.464-12.536-28-28-28h-0.75c-15.464,0-28,12.536-28,28l0,0
	c0,15.464,12.536,28,28,28h0.75C291.591,489,304.127,476.464,304.127,461z"/>
<g>
	<path style="fill:#F5B955;" d="M88,238.281c-24.318,3.527-43,24.451-43,49.746v48.417c0,25.295,18.682,46.219,43,49.746V238.281z"
		/>
	<path style="fill:#F5B955;" d="M460.5,238.529v147.412c23.58-4.154,41.5-24.726,41.5-49.498v-48.417
		C502,263.255,484.08,242.683,460.5,238.529z"/>
</g>
<path d="M482.021,235.951v-59.182C482.021,86.466,408.555,13,318.252,13H193.769C103.466,13,30,86.466,30,176.769v59.17
	c-17.922,10.458-30,29.883-30,52.087v48.417c0,33.237,27.04,60.277,60.277,60.277H88c5.523,0,10-4.478,10-10V184.254
	C98,127.319,144.319,81,201.253,81H217c5.523,0,10-4.478,10-10s-4.477-10-10-10h-15.747C133.291,61,78,116.291,78,184.254v43.496
	H60.277c-3.505,0-6.935,0.318-10.277,0.895v-51.876C50,97.494,114.494,33,193.769,33h124.484
	c79.274,0,143.769,64.494,143.769,143.769v51.88c-3.349-0.579-6.786-0.898-10.298-0.898H434v-43.496
	C434,116.291,378.709,61,310.747,61H294.5c-5.523,0-10,4.478-10,10s4.477,10,10,10h16.246C367.681,81,414,127.319,414,184.254V434
	c0,9.374-7.626,17-17,17h-84.218c-4.402-16.116-19.163-28-36.655-28h-40c-20.953,0-38,17.047-38,38s17.047,38,38,38h40
	c17.492,0,32.253-11.884,36.655-28H397c20.402,0,37-16.599,37-37v-37.279h17.723c33.237,0,60.277-27.04,60.277-60.277v-48.417
	C512,265.831,499.932,246.412,482.021,235.951z M78,247.75v99.417v29.554H60.277C38.068,376.721,20,358.652,20,336.443v-48.417
	c0-22.208,18.068-40.276,40.277-40.276H78z M276.127,479h-40c-9.925,0-18-8.075-18-18s8.075-18,18-18h40c9.925,0,18,8.075,18,18
	S286.052,479,276.127,479z M492,336.443c0,14.401-7.603,27.055-19,34.176v-54.193c0-5.522-4.477-10-10-10s-10,4.478-10,10v60.261
	c-0.425,0.013-0.849,0.032-1.277,0.032H434v-29.554V247.75h17.723c22.208,0,40.277,18.068,40.277,40.276V336.443z"/>
<path d="M256.308,81c5.523,0,10-4.478,10-10s-4.477-10-10-10h-0.616c-5.523,0-10,4.478-10,10s4.477,10,10,10H256.308z"/>
<path d="M211.61,362.82l0.357,0.147c6.766,2.789,11.138,9.22,11.138,16.383V384c0,5.522,4.477,10,10,10h45.789
	c5.523,0,10-4.478,10-10v-4.572c0-7.184,4.388-13.631,11.186-16.426l0.366-0.151c6.817-2.832,14.501-1.384,19.572,3.688l3.23,3.23
	c1.875,1.876,4.419,2.93,7.071,2.93l0,0c2.652,0,5.196-1.054,7.071-2.929l32.377-32.377c3.905-3.905,3.906-10.236,0.001-14.142
	l-3.164-3.165c-5.086-5.086-6.532-12.789-3.666-19.665l0.149-0.36c2.798-6.783,9.249-11.166,16.434-11.166H384
	c5.523,0,10-4.478,10-10v-45.789c0-5.522-4.477-10-10-10h-4.391c-7.211,0-13.683-4.403-16.484-11.208l-0.159-0.383
	c-2.847-6.85-1.394-14.567,3.701-19.663l3.102-3.103c3.905-3.905,3.904-10.236-0.001-14.142l-32.377-32.377
	c-1.875-1.875-4.419-2.929-7.071-2.929s-5.196,1.054-7.071,2.93l-3.101,3.102c-5.095,5.095-12.813,6.547-19.69,3.688l-0.345-0.142
	c-6.815-2.805-11.218-9.277-11.218-16.488V128c0-5.522-4.477-10-10-10h-45.789c-5.523,0-10,4.478-10,10v4.478
	c0,7.185-4.383,13.635-11.208,16.45l-0.358,0.148c-6.835,2.852-14.539,1.405-19.625-3.681l-3.164-3.164
	c-1.875-1.876-4.419-2.93-7.071-2.93l0,0c-2.652,0-5.196,1.054-7.071,2.929l-32.377,32.377c-3.905,3.905-3.906,10.236-0.001,14.142
	l3.23,3.231c5.072,5.072,6.521,12.755,3.684,19.585l-0.149,0.36c-2.792,6.791-9.239,11.18-16.423,11.18H128c-5.523,0-10,4.478-10,10
	v45.789c0,5.522,4.477,10,10,10h4.649c7.163,0,13.594,4.372,16.393,11.162l0.147,0.355c2.836,6.811,1.394,14.486-3.673,19.553
	l-3.285,3.285c-1.875,1.876-2.929,4.419-2.929,7.071s1.054,5.195,2.929,7.071l32.377,32.377c3.905,3.904,10.237,3.904,14.142,0
	l3.285-3.285C197.103,361.418,204.778,359.975,211.61,362.82z M181.95,348.826l-18.776-18.775
	c7.918-10.58,9.735-24.703,4.469-37.351l-0.12-0.289c-5.192-12.596-16.447-21.262-29.522-23.136v-26.562
	c13.069-1.898,24.309-10.575,29.484-23.162l0.136-0.327c5.234-12.604,3.426-26.695-4.454-37.268l18.801-18.801
	c10.586,7.85,24.672,9.631,37.274,4.378l0.324-0.135c12.556-5.179,21.211-16.378,23.136-29.399h26.611
	c1.952,13.018,10.621,24.201,23.185,29.372l0.312,0.128c12.576,5.23,26.633,3.46,37.216-4.353l18.829,18.828
	c-7.812,10.582-9.581,24.641-4.346,37.234l0.12,0.29c5.172,12.565,16.357,21.235,29.373,23.188V269.3
	c-13.022,1.926-24.224,10.584-29.415,23.171l-0.122,0.295c-5.251,12.598-3.47,26.682,4.38,37.268l-18.801,18.801
	c-10.573-7.88-24.662-9.688-37.255-4.459l-0.32,0.133c-12.604,5.183-21.283,16.424-23.182,29.492h-26.561
	c-1.874-13.075-10.539-24.33-23.125-29.519l-0.324-0.134C206.65,339.091,192.529,340.908,181.95,348.826z"/>
<path d="M256.346,313.999L256,314c-5.523,0-10,4.478-10,10s4.477,10,10,10l0.487-0.001c5.523-0.039,9.968-4.548,9.929-10.07
	S261.839,313.946,256.346,313.999z"/>
<path d="M228.105,318.836c2.956-4.665,1.57-10.843-3.095-13.799C208.097,294.321,198,275.99,198,256c0-31.981,26.019-58,58-58
	s58,26.019,58,58c0,19.704-9.875,37.894-26.417,48.656c-4.629,3.012-5.94,9.206-2.928,13.836c3.012,4.629,9.207,5.939,13.835,2.928
	C320.726,306.952,334,282.496,334,256c0-43.01-34.991-78-78-78s-78,34.99-78,78c0,26.881,13.572,51.528,36.306,65.932
	c1.661,1.052,3.512,1.554,5.343,1.554C222.96,323.485,226.201,321.841,228.105,318.836z"/>
<path d="M300,256c0-5.522-4.477-10-10-10s-10,4.478-10,10c0,13.233-10.766,24-24,24c-5.523,0-10,4.478-10,10s4.477,10,10,10
	C280.262,300,300,280.262,300,256z"/>
<g>
</g>
<g>
</g>
<g>
</g>
<g>
</g>
<g>
</g>
<g>
</g>
<g>
</g>
<g>
</g>
<g>
</g>
<g>
</g>
<g>
</g>
<g>
</g>
<g>
</g>
<g>
</g>
<g>
</g>
</svg>
