<?xml version="1.0" encoding="iso-8859-1"?>
<!-- Generator: Adobe Illustrator 19.0.0, SVG Export Plug-In . SVG Version: 6.00 Build 0)  -->
<svg version="1.1" id="Capa_1" xmlns="http://www.w3.org/2000/svg" xmlns:xlink="http://www.w3.org/1999/xlink" x="0px" y="0px"
	 viewBox="0 0 512 512" style="enable-background:new 0 0 512 512;" xml:space="preserve">
<path style="fill:#9BBEFF;" d="M488.274,394H178.06c-7.581,0-13.726-8.954-13.726-20V30c0-11.046,6.145-20,13.726-20h310.214
	C495.855,10,502,18.954,502,30v344C502,385.046,495.855,394,488.274,394z"/>
<path style="fill:#FFFFFF;" d="M438,350.036H74c-11.046,0-20-8.954-20-20V73.964c0-11.046,8.954-20,20-20h364
	c11.046,0,20,8.954,20,20v256.071C458,341.081,449.046,350.036,438,350.036z"/>
<path style="fill:#91E696;" d="M300,306.366c0-17.677-13.815-27.723-34.146-32.007l-43.203-10.829
	c-2.531-0.847-4.851-1.745-6.906-2.761c-2.055,1.016-4.375,1.914-6.906,2.761l-41.589,14.095
	c-20.331,4.284-35.75,11.064-35.75,28.741v23.67c0,11.046,8.954,20,20,20H300V306.366z"/>
<path style="fill:#FFCDAC;" d="M222.651,264.53c-10.113-3.386-16.847-7.573-16.847-16.916v-11.74l-26.263-0.285v19.777
	c0,14.718-10.274,21.572-25.863,26.992l24.694,12.056l55.827-27.257L222.651,264.53z"/>
<g>
	<path style="fill:#FF5A5A;" d="M239.637,189.418h7c13.807,0,25-11.193,25-25l0,0c0-13.807-11.193-25-25-25h-7V189.418z"/>
	<path style="fill:#FF5A5A;" d="M118.56,139.418h-7c-13.807,0-25,11.193-25,25l0,0c0,13.807,11.193,25,25,25h7V139.418z"/>
</g>
<path style="fill:#FFCDAC;" d="M239,176.459v-48.536c0-25.539-15.906-47.349-38.345-56.105
	c-22.439,8.756-38.346,30.566-38.346,56.105v48.536c0,25.539,15.906,47.349,38.346,56.105C223.094,223.809,239,201.999,239,176.459z
	"/>
<rect x="249.67" y="394" style="fill:#D7D7E6;" width="63.3" height="68"/>
<path style="fill:#7D9BFF;" d="M308,462h-44.667c-22.091,0-40,17.909-40,40l0,0H348l0,0C348,479.909,330.091,462,308,462z"/>
<path style="fill:#F5C86E;" d="M319.887,109.25v82c0,1.617,0.132,3.202,0.378,4.75H330v17.703c2.239,1.985,4.777,3.637,7.538,4.886
	L360.127,196H428c16.568,0,30-13.431,30-30V84c0-1.617-0.132-3.202-0.378-4.75H349.887C333.318,79.25,319.887,92.681,319.887,109.25
	z"/>
<path d="M482,0H30C13.458,0,0,13.458,0,30v344c0,16.542,13.458,30,30,30h159.028v50.292C168.75,460.67,154,479.644,154,502
	c0,5.522,4.478,10,10,10h184c5.522,0,10-4.478,10-10c0-22.357-14.75-41.331-35.03-47.708V404H356c5.522,0,10-4.478,10-10
	s-4.478-10-10-10h-43.03H199.028H30c-5.514,0-10-4.486-10-10V30c0-5.514,4.486-10,10-10h452c5.514,0,10,4.486,10,10v344
	c0,5.514-4.486,10-10,10h-25.5c-5.522,0-10,4.478-10,10s4.478,10,10,10H482c16.542,0,30-13.458,30-30V30C512,13.458,498.542,0,482,0
	z M336.286,492H175.714c4.127-11.641,15.249-20,28.286-20h104C321.037,472,332.159,480.359,336.286,492z M302.97,404v48h-93.941v-48
	H302.97z"/>
<path d="M408,384c-2.641,0-5.21,1.069-7.07,2.93S398,391.37,398,394s1.069,5.21,2.93,7.069c1.86,1.86,4.44,2.931,7.07,2.931
	s5.21-1.07,7.069-2.931C416.93,399.21,418,396.63,418,394s-1.07-5.21-2.931-7.07C413.21,385.069,410.64,384,408,384z"/>
<path d="M344.818,114.442c5.522,0,10-4.477,10-10c0-5.514,4.486-10,10-10s10,4.486,10,10s-4.486,10-10,10c-5.522,0-10,4.477-10,10
	v9.016c0,5.523,4.478,10,10,10s10-4.477,10-10v-0.729c11.641-4.127,20-15.249,20-28.287c0-16.542-13.458-30-30-30s-30,13.458-30,30
	C334.818,109.965,339.296,114.442,344.818,114.442z"/>
<path d="M364.819,148.46c-2.64,0-5.21,1.07-7.069,2.93c-1.86,1.86-2.931,4.43-2.931,7.07c0,2.63,1.07,5.21,2.931,7.07
	c1.859,1.86,4.439,2.93,7.069,2.93c2.631,0,5.21-1.07,7.07-2.93s2.93-4.44,2.93-7.07s-1.069-5.21-2.93-7.07
	C370.029,149.53,367.45,148.46,364.819,148.46z"/>
<path d="M182,199.42c2.63,0,5.21-1.07,7.069-2.93c1.86-1.86,2.931-4.44,2.931-7.07s-1.07-5.21-2.931-7.07
	c-1.859-1.86-4.439-2.93-7.069-2.93s-5.21,1.07-7.07,2.93c-1.86,1.86-2.93,4.44-2.93,7.07s1.069,5.21,2.93,7.07
	S179.37,199.42,182,199.42z"/>
<g>
	<path style="fill:#878791;" d="M198.142,70.902c0.846,0.288,1.684,0.592,2.512,0.915C199.825,71.494,198.988,71.19,198.142,70.902z
		"/>
	<path style="fill:#878791;" d="M195.579,70.095c0.822,0.239,1.637,0.494,2.443,0.766C197.215,70.59,196.401,70.334,195.579,70.095z
		"/>
	<polygon style="fill:#878791;" points="178.779,67.703 178.779,67.703 178.78,67.703 	"/>
	<path style="fill:#878791;" d="M178.779,67.703c-4.157,0-8.216,0.421-12.136,1.224C170.563,68.124,174.622,67.703,178.779,67.703
		L178.779,67.703z"/>
	<path style="fill:#878791;" d="M192.953,69.396c0.783,0.19,1.56,0.395,2.331,0.615C194.513,69.792,193.737,69.585,192.953,69.396z"
		/>
	<path style="fill:#878791;" d="M181.756,67.778c0.434,0.021,0.864,0.062,1.295,0.092C182.62,67.84,182.19,67.799,181.756,67.778z"
		/>
	<path style="fill:#878791;" d="M190.261,68.809c0.73,0.142,1.455,0.3,2.176,0.468C191.716,69.11,190.992,68.95,190.261,68.809z"/>
	<path style="fill:#878791;" d="M200.654,71.818c-22.439,8.756-38.346,30.566-38.346,56.105v12.752
		c17.031-3.06,32.865-11.228,45.269-23.632l-11.539,12.5c7.696,7.696,18.135,12.02,29.019,12.02H239v-13.64
		C239,102.384,223.094,80.574,200.654,71.818z"/>
	<path style="fill:#878791;" d="M187.497,68.339c0.663,0.097,1.32,0.211,1.975,0.329C188.816,68.551,188.16,68.435,187.497,68.339z"
		/>
	<path style="fill:#878791;" d="M184.661,67.993c0.574,0.056,1.143,0.131,1.712,0.203C185.804,68.125,185.236,68.049,184.661,67.993
		z"/>
</g>
<path d="M468,330v-94.752c0-5.523-4.478-10-10-10s-10,4.477-10,10V330c0,5.514-4.486,10-10,10H310v-33.634
	c0-12.287-5.459-34.044-42.003-41.774l-42.629-9.699c-9.564-3.268-9.564-5.397-9.564-7.279v-11.531
	c13.541-8.439,24.004-21.355,29.319-36.665h1.514c8.976,0,17.17-3.399,23.371-8.974c7.323,9.453,18.773,15.556,31.629,15.556H320
	v20.127c0,4.044,2.437,7.691,6.173,9.239c1.237,0.513,2.537,0.762,3.825,0.762c2.603,0,5.16-1.017,7.073-2.929L364.27,206H428
	c22.056,0,40-17.944,40-40V84c0-22.056-17.944-40-40-40H301.637c-22.056,0-40,17.944-40,40v48.802
	c-3.875-1.846-8.143-2.994-12.639-3.295v-1.585c0-38.719-31.5-70.219-70.219-70.219s-70.219,31.5-70.219,70.219v1.634
	c-17.899,1.528-32,16.575-32,34.863c0,19.299,15.701,35,35,35h0.875c4.854,13.982,14.004,25.963,25.87,34.365
	c-0.071,0.479-0.119,0.966-0.119,1.465v12.366c0,1.882,0,4.011-9.565,7.279l-42.624,9.698c-9.146,1.935-16.344,4.749-21.997,8.073
	V74c0-5.514,4.486-10,10-10h28.561c5.522,0,10-4.477,10-10s-4.478-10-10-10H74c-16.542,0-30,13.458-30,30v232.366V330v0.036
	c0,16.542,13.458,30,30,30h226c0.242,0,0.478-0.019,0.715-0.036H438C454.542,360,468,346.542,468,330z M281.637,84
	c0-11.028,8.972-20,20-20H428c11.028,0,20,8.972,20,20v82c0,11.028-8.972,20-20,20h-67.873c-2.652,0-5.195,1.054-7.071,2.929
	L340,201.985V196c0-5.523-4.478-10-10-10h-28.363c-11.028,0-20-8.972-20-20V84z M261.637,164.418c0,7.49-5.524,13.698-12.709,14.806
	c0.036-0.92,0.07-1.84,0.07-2.768v-26.833C256.149,150.761,261.637,156.952,261.637,164.418z M178.779,77.703
	c27.69,0,50.219,22.528,50.219,50.219v3.64h-5.721c-5.143,0-10.093-1.244-14.51-3.587c1.397-1.245,2.768-2.529,4.102-3.863
	c3.905-3.905,3.905-10.237,0-14.142c-3.906-3.905-10.236-3.905-14.143,0c-14.233,14.233-33.157,22.072-53.286,22.072h-16.88v-4.121
	C128.561,100.23,151.089,77.703,178.779,77.703z M96.561,164.418c0-7.244,5.161-13.304,12-14.698v26.736
	c0,0.895,0.034,1.782,0.068,2.67C101.757,177.758,96.561,171.685,96.561,164.418z M128.561,176.456v-24.414h16.88
	c16.307,0,31.986-4.072,45.885-11.724c9.033,7.28,20.186,11.243,31.951,11.243h5.721v24.895c0,0.995-0.037,1.981-0.095,2.962
	h-10.272c-5.522,0-10,4.477-10,10s4.478,10,10,10h4.787c-8.352,16.17-25.219,27.257-44.639,27.257
	C151.089,226.675,128.561,204.147,128.561,176.456z M178.779,246.675c5.87,0,11.571-0.734,17.024-2.098v3.037
	c0,10.848,5.931,17.308,12.138,21.234l-29.569,14.438l-31.156-15.212c5.762-3.985,10.97-10.295,10.97-20.46v-4.026
	C164.702,245.591,171.616,246.675,178.779,246.675z M90.198,284.145c0.053-0.011,0.104-0.022,0.157-0.034l30.096-6.847
	l53.533,26.137c1.385,0.676,2.886,1.014,4.388,1.014s3.003-0.338,4.388-1.014l52.657-25.71l28.218,6.42
	c0.053,0.012,0.104,0.023,0.157,0.034C290,289.667,290,302.236,290,306.366V340H74c-5.514,0-10-4.486-10-10v-23.634
	C64,302.235,64,289.665,90.198,284.145z"/>
<g>
</g>
<g>
</g>
<g>
</g>
<g>
</g>
<g>
</g>
<g>
</g>
<g>
</g>
<g>
</g>
<g>
</g>
<g>
</g>
<g>
</g>
<g>
</g>
<g>
</g>
<g>
</g>
<g>
</g>
</svg>
